0
SECTION
2
HEADER
9
$INSUNITS
70
4
0
ENDSEC
0
SECTION
2
TABLES
0
TABLE
2
LTYPE
0
LTYPE
72
65
70
64
2
CONTINUOUS
3
______
73
0
40
0
0
ENDTAB
0
TABLE
2
LAYER
0
ENDTAB
0
ENDSEC
0
SECTION
2
ENTITIES
0
LINE
8
0
10
194.4405788
20
-88.3958967
11
104.1398506
21
-88.3958967
0
LINE
8
0
10
102.1644739
20
-90.0830277
11
92.7111362
21
-149.7690533
0
LINE
8
0
10
93.9241606
20
-151.9309272
11
152.2562987
21
-175.9815057
0
LINE
8
0
10
152.705782
20
-176.1078775
11
200.9235532
21
-183.7448222
0
LINE
8
0
10
202.7533404
20
-183.0728867
11
203.974428
21
-181.65181
0
LINE
8
0
10
205.4913462
20
-180.9552512
11
209.654573
21
-180.9552512
0
LINE
8
0
10
211.1714912
20
-181.65181
11
212.3925788
21
-183.0728867
0
LINE
8
0
10
214.222366
20
-183.7448222
11
262.4401372
21
-176.1078775
0
LINE
8
0
10
262.8896205
20
-175.9815057
11
321.2217586
21
-151.9309272
0
LINE
8
0
10
322.434783
20
-149.7690533
11
312.9814453
21
-90.0830277
0
LINE
8
0
10
311.0060686
20
-88.3958967
11
220.7053404
21
-88.3958967
0
LINE
8
0
10
218.9903546
20
-89.3669051
11
217.5729596
21
-91.72923
0
LINE
8
0
10
197.5729596
20
-91.72923
11
196.1555646
21
-89.3669051
0
ARC
8
0
10
104.1398506
20
-90.3958967
40
2
50
90
51
170.9999977
0
ARC
8
0
10
94.6865128
20
-150.0819223
40
2
50
170.9999977
51
247.5934469
0
ARC
8
0
10
153.018651
20
-174.1325008
40
2
50
247.5934469
51
260.9999977
0
ARC
8
0
10
201.2364222
20
-181.7694455
40
2
50
260.9999977
51
319.328545
0
ARC
8
0
10
205.4913462
20
-182.9552512
40
2
50
90
51
139.328545
0
ARC
8
0
10
209.654573
20
-182.9552512
40
2
50
40.671455
51
90
0
ARC
8
0
10
213.909497
20
-181.7694455
40
2
50
220.671455
51
279.0000023
0
ARC
8
0
10
262.1272682
20
-174.1325008
40
2
50
279.0000023
51
292.4065531
0
ARC
8
0
10
320.4594064
20
-150.0819223
40
2
50
292.4065531
51
9.0000023
0
ARC
8
0
10
311.0060686
20
-90.3958967
40
2
50
9.0000023
51
90
0
ARC
8
0
10
220.7053404
20
-90.3958967
40
2
50
90
51
149.0362405
0
ARC
8
0
10
194.4405788
20
-90.3958967
40
2
50
30.9637595
51
90
0
LINE
8
0
10
105.0017757
20
-136.1015324
11
98.0879573
21
-135.0064911
0
LINE
8
0
10
95.780549
20
-149.5748941
11
98.0879573
21
-135.0064911
0
LINE
8
0
10
107.9740305
20
-117.3354538
11
101.0602122
21
-116.2404126
0
LINE
8
0
10
98.7528039
20
-130.8088156
11
101.0602122
21
-116.2404126
0
LINE
8
0
10
117.6283489
20
-101.1276586
11
117.8601037
21
-99.6644167
0
LINE
8
0
10
117.8601037
20
-99.6644167
11
104.032467
21
-97.4743342
0
LINE
8
0
10
101.7250587
20
-112.0427372
11
104.032467
21
-97.4743342
0
LINE
8
0
10
137.5256804
20
-96.9574636
11
137.8776579
21
-94.7351648
0
LINE
8
0
10
137.8776579
20
-94.7351648
11
124.0500212
21
-92.5450823
0
LINE
8
0
10
122.6247294
20
-101.5440205
11
124.0500212
21
-92.5450823
0
LINE
8
0
10
156.9174967
20
-95.978965
11
157.2694742
21
-93.7566662
0
LINE
8
0
10
157.2694742
20
-93.7566662
11
143.4418375
21
-91.5665837
0
LINE
8
0
10
142.4641221
20
-97.7396359
11
143.4418375
21
-91.5665837
0
LINE
8
0
10
175.0578374
20
-102.9019732
11
175.4098149
21
-100.6796744
0
LINE
8
0
10
175.4098149
20
-100.6796744
11
161.5821782
21
-98.4895919
0
LINE
8
0
10
171.4706008
20
-157.5131601
11
171.923971
21
-154.6506929
0
LINE
8
0
10
191.5747789
20
-107.2898136
11
179.7225188
21
-105.4126001
0
LINE
8
0
10
317.0579619
20
-135.0064911
11
319.3653702
21
-149.5748941
0
LINE
8
0
10
317.0579619
20
-135.0064911
11
310.1441435
21
-136.1015324
0
LINE
8
0
10
314.085707
20
-116.2404126
11
316.3931153
21
-130.8088156
0
LINE
8
0
10
314.085707
20
-116.2404126
11
307.1718887
21
-117.3354538
0
LINE
8
0
10
311.1134522
20
-97.4743342
11
313.4208605
21
-112.0427372
0
LINE
8
0
10
311.1134522
20
-97.4743342
11
297.2858155
21
-99.6644167
0
LINE
8
0
10
297.2858155
20
-99.6644167
11
297.5175703
21
-101.1276586
0
LINE
8
0
10
291.095898
20
-92.5450823
11
292.5211898
21
-101.5440205
0
LINE
8
0
10
291.095898
20
-92.5450823
11
277.2682613
21
-94.7351648
0
LINE
8
0
10
277.2682613
20
-94.7351648
11
277.6202388
21
-96.9574636
0
LINE
8
0
10
271.7040817
20
-91.5665837
11
272.6817971
21
-97.7396359
0
LINE
8
0
10
271.7040817
20
-91.5665837
11
257.876445
21
-93.7566662
0
LINE
8
0
10
257.876445
20
-93.7566662
11
258.2284225
21
-95.978965
0
LINE
8
0
10
253.563741
20
-98.4895919
11
239.7361043
21
-100.6796744
0
LINE
8
0
10
239.7361043
20
-100.6796744
11
240.0880818
21
-102.9019732
0
LINE
8
0
10
243.2219482
20
-154.6506929
11
243.6753184
21
-157.5131601
0
LINE
8
0
10
235.4234004
20
-105.4126001
11
223.5711403
21
-107.2898136
0
LINE
8
0
10
173.7363053
20
-162.2256125
11
161.3902011
21
-160.2701817
0
LINE
8
0
10
161.3902011
20
-160.2701817
11
159.2001186
21
-174.0978184
0
LINE
8
0
10
159.2001186
20
-174.0978184
11
196.2384313
21
-179.9641108
0
LINE
8
0
10
198.4285138
20
-166.1364741
11
187.5639421
21
-164.415695
0
LINE
8
0
10
196.2384313
20
-179.9641108
11
198.4285138
21
-166.1364741
0
LINE
8
0
10
253.7557181
20
-160.2701817
11
241.4096139
21
-162.2256125
0
LINE
8
0
10
218.9074879
20
-179.9641108
11
255.9458006
21
-174.0978184
0
LINE
8
0
10
255.9458006
20
-174.0978184
11
253.7557181
21
-160.2701817
0
LINE
8
0
10
227.5819771
20
-164.415695
11
216.7174054
21
-166.1364741
0
LINE
8
0
10
216.7174054
20
-166.1364741
11
218.9074879
21
-179.9641108
0
LINE
8
0
10
217.5729596
20
-107.2898136
11
217.5729596
21
-91.72923
0
LINE
8
0
10
197.5729596
20
-91.72923
11
197.5729596
21
-107.2898136
0
LINE
8
0
10
95.780549
20
-149.5748941
11
114.5466274
21
-152.5471489
0
LINE
8
0
10
114.5466274
20
-152.5471489
11
115.7358191
21
-145.0388885
0
LINE
8
0
10
98.7528039
20
-130.8088156
11
105.6666221
21
-131.9038568
0
LINE
8
0
10
101.7250587
20
-112.0427372
11
108.638877
21
-113.1377784
0
LINE
8
0
10
142.4641221
20
-97.7396359
11
137.5256804
21
-96.9574636
0
LINE
8
0
10
161.5821782
20
-98.4895919
11
161.8559384
21
-96.7611373
0
LINE
8
0
10
161.8559384
20
-96.7611373
11
156.9174967
21
-95.978965
0
LINE
8
0
10
179.7225188
20
-105.4126001
11
179.9962791
21
-103.6841455
0
LINE
8
0
10
179.9962791
20
-103.6841455
11
175.0578374
21
-102.9019732
0
LINE
8
0
10
171.4706008
20
-157.5131601
11
174.4089735
21
-157.9785526
0
LINE
8
0
10
188.2366103
20
-160.1686351
11
190.2366792
21
-160.4854149
0
LINE
8
0
10
190.2366792
20
-160.4854149
11
190.8403115
21
-156.6742307
0
LINE
8
0
10
300.5992918
20
-152.5471489
11
319.3653702
21
-149.5748941
0
LINE
8
0
10
299.4101001
20
-145.0388885
11
300.5992918
21
-152.5471489
0
LINE
8
0
10
309.4792971
20
-131.9038568
11
316.3931153
21
-130.8088156
0
LINE
8
0
10
306.5070422
20
-113.1377784
11
313.4208605
21
-112.0427372
0
LINE
8
0
10
277.6202388
20
-96.9574636
11
272.6817971
21
-97.7396359
0
LINE
8
0
10
258.2284225
20
-95.978965
11
253.2899808
21
-96.7611373
0
LINE
8
0
10
253.2899808
20
-96.7611373
11
253.563741
21
-98.4895919
0
LINE
8
0
10
240.0880818
20
-102.9019732
11
235.1496401
21
-103.6841455
0
LINE
8
0
10
235.1496401
20
-103.6841455
11
235.4234004
21
-105.4126001
0
LINE
8
0
10
224.90924
20
-160.4854149
11
226.9093089
21
-160.1686351
0
LINE
8
0
10
240.7369457
20
-157.9785526
11
243.6753184
21
-157.5131601
0
LINE
8
0
10
224.3056077
20
-156.6742307
11
224.90924
21
-160.4854149
0
LINE
8
0
10
174.4089735
20
-157.9785526
11
173.7363053
21
-162.2256125
0
LINE
8
0
10
187.5639421
20
-164.415695
11
188.2366103
21
-160.1686351
0
LINE
8
0
10
226.9093089
20
-160.1686351
11
227.5819771
21
-164.415695
0
LINE
8
0
10
241.4096139
20
-162.2256125
11
240.7369457
21
-157.9785526
0
LINE
8
0
10
122.6247294
20
-101.5440205
11
117.6283489
21
-101.1276586
0
LINE
8
0
10
105.6666221
20
-131.9038568
11
105.0017757
21
-136.1015324
0
LINE
8
0
10
108.638877
20
-113.1377784
11
107.9740305
21
-117.3354538
0
LINE
8
0
10
115.7358191
20
-145.0388885
11
171.923971
21
-154.6506929
0
LINE
8
0
10
190.8403115
20
-156.6742307
11
224.3056077
21
-156.6742307
0
LINE
8
0
10
243.2219482
20
-154.6506929
11
299.4101001
21
-145.0388885
0
LINE
8
0
10
310.1441435
20
-136.1015324
11
309.4792971
21
-131.9038568
0
LINE
8
0
10
307.1718887
20
-117.3354538
11
306.5070422
21
-113.1377784
0
LINE
8
0
10
297.5175703
20
-101.1276586
11
292.5211898
21
-101.5440205
0
LINE
8
0
10
223.5711403
20
-107.2898136
11
217.5729596
21
-107.2898136
0
LINE
8
0
10
197.5729596
20
-107.2898136
11
191.5747789
21
-107.2898136
0
ENDSEC
0
EOF