<?xml version="1.0" standalone="no"?>
<!DOCTYPE svg PUBLIC "-//W3C//DTD SVG 20010904//EN"
 "http://www.w3.org/TR/2001/REC-SVG-20010904/DTD/svg10.dtd">
<svg version="1.0" xmlns="http://www.w3.org/2000/svg"
 width="69.000000pt" height="25.000000pt" viewBox="0 0 69.000000 25.000000"
 preserveAspectRatio="xMidYMid meet">

<g transform="translate(0.000000,25.000000) scale(0.100000,-0.100000)"
fill="#000000" stroke="none">
<path d="M35 211 c-3 -5 5 -11 17 -13 21 -3 23 -9 26 -66 4 -82 25 -79 32 4 4
51 8 59 25 59 18 0 20 -8 23 -83 2 -60 6 -82 15 -79 7 2 14 34 17 83 4 71 7
79 25 79 17 0 20 -8 23 -54 3 -43 -1 -61 -18 -83 -28 -38 0 -39 29 -2 28 36
29 123 3 147 -21 19 -53 22 -69 6 -8 -8 -13 -8 -17 0 -4 6 -17 11 -30 11 -12
0 -27 -5 -33 -11 -8 -8 -13 -8 -17 0 -9 13 -43 14 -51 2z"/>
<path d="M307 202 c-25 -27 -23 -133 1 -155 24 -22 55 -21 75 1 25 27 23 133
-1 155 -24 22 -55 21 -75 -1z m58 -77 c0 -63 -2 -70 -20 -70 -17 0 -20 8 -23
59 -4 70 2 89 25 84 15 -3 18 -15 18 -73z"/>
<path d="M441 194 c-28 -36 -29 -123 -3 -147 21 -19 53 -22 69 -6 8 8 13 8 17
0 9 -14 53 -14 61 -1 4 6 13 5 24 -2 11 -6 26 -8 37 -3 17 7 17 8 -6 14 -23 6
-25 12 -28 70 -4 81 -25 78 -32 -5 -4 -51 -8 -59 -25 -59 -18 0 -20 8 -23 83
-2 60 -6 82 -15 79 -7 -2 -14 -34 -17 -83 -4 -71 -7 -79 -25 -79 -17 0 -20 8
-23 54 -3 43 1 61 18 83 28 38 0 39 -29 2z"/>
<path d="M580 204 c0 -9 5 -14 12 -12 18 6 21 28 4 28 -9 0 -16 -7 -16 -16z"/>
<path d="M87 53 c-12 -11 -8 -23 8 -23 8 0 15 7 15 15 0 16 -12 20 -23 8z"/>
</g>
</svg>
