<?xml version="1.0" encoding="UTF-8" standalone="no"?>
<!DOCTYPE svg PUBLIC "-//W3C//DTD SVG 1.1//EN" "http://www.w3.org/Graphics/SVG/1.1/DTD/svg11.dtd">
<svg width="100%" height="100%" viewBox="0 0 288 105" version="1.1" xmlns="http://www.w3.org/2000/svg" xmlns:xlink="http://www.w3.org/1999/xlink" xml:space="preserve" xmlns:serif="http://www.serif.com/" style="fill-rule:evenodd;clip-rule:evenodd;stroke-linejoin:round;stroke-miterlimit:2;">
    <g transform="matrix(4.16667,0,0,4.16667,0,0)">
        <g transform="matrix(1,0,0,1,-0.233806,-0.00529542)">
            <g id="Capa1">
                <g>
                    <g transform="matrix(-0.1,-1.22465e-17,-1.22465e-17,0.1,69.2452,7.10543e-15)">
                        <path d="M35,211C32,206 40,200 52,198C73,195 75,189 78,132C82,50 103,53 110,136C114,187 118,195 135,195C153,195 155,187 158,112C160,52 164,30 173,33C180,35 187,67 190,116C194,187 197,195 215,195C232,195 235,187 238,141C241,98 237,80 220,58C192,20 220,19 249,56C277,92 278,179 252,203C231,222 199,225 183,209C175,201 170,201 166,209C162,215 149,220 136,220C124,220 109,215 103,209C95,201 90,201 86,209C77,222 43,223 35,211Z" style="fill-rule:nonzero;"/>
                    </g>
                    <g transform="matrix(-0.1,-1.22465e-17,-1.22465e-17,0.1,69.2452,7.10543e-15)">
                        <path d="M87,53C75,42 79,30 95,30C103,30 110,37 110,45C110,61 98,65 87,53Z" style="fill-rule:nonzero;"/>
                    </g>
                    <g transform="matrix(0.1,0,0,-0.1,0.222408,25.0106)">
                        <path d="M35,211C32,206 40,200 52,198C73,195 75,189 78,132C82,50 103,53 110,136C114,187 118,195 135,195C153,195 155,187 158,112C160,52 164,30 173,33C180,35 187,67 190,116C194,187 197,195 215,195C232,195 235,187 238,141C241,98 237,80 220,58C192,20 220,19 249,56C277,92 278,179 252,203C231,222 199,225 183,209C175,201 170,201 166,209C162,215 149,220 136,220C124,220 109,215 103,209C95,201 90,201 86,209C77,222 43,223 35,211Z" style="fill-rule:nonzero;"/>
                    </g>
                    <path d="M32.62,3.549C34.444,2.707 36.629,3.066 38.422,4.711C40.822,6.911 41.022,17.511 38.522,20.211C38.023,20.759 37.456,21.178 36.848,21.462C35.024,22.304 32.839,21.944 31.045,20.3C28.645,18.1 28.445,7.5 30.945,4.8C31.444,4.251 32.012,3.833 32.62,3.549ZM33.458,19.134C33.763,19.426 34.168,19.511 34.722,19.511C36.522,19.511 36.722,18.811 36.722,12.511C36.722,8.535 36.581,6.721 36.01,5.876C35.705,5.585 35.299,5.5 34.745,5.5C32.945,5.5 32.745,6.2 32.745,12.5C32.745,16.475 32.886,18.29 33.458,19.134Z"/>
                    <g transform="matrix(0.1,0,0,-0.1,0.222408,25.0106)">
                        <path d="M87,53C75,42 79,30 95,30C103,30 110,37 110,45C110,61 98,65 87,53Z" style="fill-rule:nonzero;"/>
                    </g>
                </g>
            </g>
        </g>
    </g>
</svg>
